<svg xmlns="http://www.w3.org/2000/svg" xmlns:xlink="http://www.w3.org/1999/xlink" width="500" zoomAndPan="magnify" viewBox="0 0 375 374.999991" height="500" preserveAspectRatio="xMidYMid meet" version="1.0"><defs><clipPath id="d4d65355d8"><path d="M 112.5 115 L 262 115 L 262 259 L 112.5 259 Z M 112.5 115 " clip-rule="nonzero"/></clipPath></defs><g clip-path="url(#d4d65355d8)"><path fill="#ffffff" d="M 112.5625 216.121094 C 112.527344 212.578125 113.65625 209.226562 114.484375 205.832031 C 116.59375 197.277344 118.667969 188.726562 120.855469 180.207031 C 122.699219 173.125 127.109375 168.261719 134.121094 166.113281 C 145.085938 162.757812 156.128906 159.746094 167.167969 156.617188 C 168.636719 156.203125 170.222656 156.128906 171.765625 156.015625 C 172.519531 155.9375 172.820312 155.863281 172.707031 154.996094 C 171.84375 148.628906 173.953125 143.351562 178.738281 139.019531 C 185.445312 132.988281 192.003906 126.847656 198.671875 120.742188 C 203.535156 116.332031 209.148438 114.9375 215.480469 116.707031 C 224.488281 119.234375 233.496094 121.832031 242.464844 124.472656 C 248.832031 126.355469 253.054688 130.539062 254.671875 136.984375 C 256.933594 145.988281 259.046875 155.035156 261.042969 164.117188 C 262.472656 170.636719 260.476562 176.328125 255.578125 180.847656 C 248.792969 187.105469 241.9375 193.246094 235.113281 199.425781 C 230.066406 203.988281 224.222656 205.34375 217.667969 203.460938 C 216.195312 203.046875 216.121094 203.121094 215.746094 204.664062 C 213.371094 214.613281 211.109375 224.601562 208.585938 234.511719 C 206.699219 241.9375 201.953125 246.949219 194.605469 249.132812 C 183.824219 252.335938 173.011719 255.3125 162.15625 258.179688 C 155.109375 260.0625 148.628906 258.480469 143.203125 253.542969 C 134.949219 246.007812 126.769531 238.316406 118.667969 230.628906 C 114.5625 226.710938 112.601562 221.773438 112.5625 216.121094 Z M 214.386719 198.449219 C 214.273438 198.410156 214.164062 198.410156 214.050781 198.371094 C 214.050781 197.957031 214.085938 197.503906 214.050781 197.054688 C 213.859375 193.585938 212.542969 192.605469 209.148438 193.585938 C 204.4375 194.90625 199.765625 196.222656 195.054688 197.503906 C 186.953125 199.765625 178.851562 202.066406 170.785156 204.328125 C 167.246094 205.304688 165.132812 207.417969 164.265625 211.109375 C 161.253906 224.375 158.125 237.640625 155.035156 250.867188 C 154.28125 254.109375 155.636719 255.804688 159.027344 255.578125 C 160.988281 255.425781 162.984375 255.089844 164.871094 254.558594 C 174.179688 251.960938 183.488281 249.246094 192.792969 246.648438 C 199.992188 244.613281 204.4375 240.015625 206.210938 232.777344 C 208.320312 224.148438 210.46875 215.519531 212.578125 206.890625 C 213.257812 204.0625 213.824219 201.234375 214.386719 198.449219 Z M 163.0625 209.074219 C 163.023438 205.683594 161.78125 203.609375 159.933594 201.839844 C 150.171875 192.53125 140.488281 183.261719 130.726562 173.953125 C 128.578125 171.917969 126.695312 172.105469 124.925781 174.515625 C 123.453125 176.550781 122.585938 178.8125 122.023438 181.226562 C 119.6875 191.097656 117.386719 201.011719 115.011719 210.882812 C 113.355469 217.894531 115.164062 223.886719 120.328125 228.785156 C 127.789062 235.867188 135.363281 242.804688 142.898438 249.8125 C 144.105469 250.941406 145.347656 252.074219 146.707031 253.015625 C 148.628906 254.335938 151.003906 253.695312 152.019531 251.621094 C 152.472656 250.714844 152.773438 249.699219 153 248.679688 C 155.789062 237.828125 158.539062 227.011719 161.289062 216.195312 C 162.042969 213.597656 162.648438 210.957031 163.0625 209.074219 Z M 167.960938 203.15625 C 168.941406 202.96875 169.921875 202.855469 170.863281 202.59375 C 181.675781 199.464844 192.457031 196.261719 203.308594 193.097656 C 205.417969 192.492188 207.492188 191.929688 209.566406 191.25 C 211.335938 190.683594 211.75 189.402344 210.621094 187.933594 C 209.867188 186.953125 209.074219 186.011719 208.171875 185.183594 C 200.332031 177.757812 192.492188 170.335938 184.617188 162.949219 C 179.492188 158.125 173.460938 156.617188 166.679688 158.5 C 156.277344 161.367188 145.914062 164.265625 135.511719 167.167969 C 134.34375 167.507812 133.140625 167.921875 132.046875 168.449219 C 130.199219 169.355469 129.9375 171.011719 131.292969 172.558594 C 131.519531 172.785156 131.746094 173.011719 131.972656 173.234375 C 134.609375 175.722656 137.246094 178.210938 139.886719 180.660156 C 146.855469 187.140625 153.867188 193.585938 160.835938 200.066406 C 162.871094 201.914062 165.097656 203.15625 167.960938 203.15625 Z M 258.96875 167.246094 C 258.933594 166.714844 258.894531 165.773438 258.707031 164.90625 C 256.933594 156.804688 255.050781 148.742188 253.277344 140.640625 C 252.675781 137.851562 252.074219 135.0625 250.453125 132.613281 C 249.210938 130.765625 247.816406 130.464844 246.195312 131.933594 C 237.640625 139.660156 229.085938 147.460938 220.53125 155.222656 C 218.042969 157.445312 217.253906 160.046875 218.15625 163.363281 C 219.550781 168.449219 220.683594 173.613281 221.925781 178.738281 C 223.355469 184.769531 224.789062 190.757812 226.222656 196.789062 C 226.9375 199.804688 228.519531 200.519531 231.15625 198.976562 C 232.550781 198.183594 233.871094 197.203125 235.078125 196.074219 C 241.445312 190.269531 247.816406 184.503906 254.144531 178.625 C 257.3125 175.6875 258.894531 171.992188 258.96875 167.246094 Z M 210.46875 117.347656 C 206.4375 117.652344 202.933594 119.007812 199.804688 121.832031 C 192.945312 128.015625 186.085938 134.195312 179.226562 140.449219 C 178.511719 141.089844 177.832031 141.769531 177.269531 142.484375 C 175.949219 144.105469 176.363281 145.652344 178.363281 146.214844 C 189.515625 149.496094 200.671875 152.734375 211.824219 155.976562 C 214.878906 156.84375 217.554688 156.089844 219.851562 153.941406 C 226.824219 147.496094 233.757812 141.015625 240.691406 134.570312 C 242.050781 133.289062 243.445312 132.046875 244.800781 130.765625 C 246.382812 129.257812 246.195312 128.203125 244.195312 127.261719 C 243.332031 126.847656 242.425781 126.542969 241.519531 126.242188 C 233.382812 123.753906 225.203125 121.269531 217.027344 118.894531 C 214.878906 118.253906 212.65625 117.875 210.46875 117.347656 Z M 216.535156 198.070312 C 216.648438 201.011719 216.648438 201.011719 219.625 201.652344 C 220.003906 201.726562 220.417969 201.800781 220.792969 201.800781 C 222.828125 201.914062 224.335938 200.484375 224.222656 198.449219 C 224.1875 197.769531 224.074219 197.128906 223.921875 196.449219 C 222.792969 191.097656 221.625 185.746094 220.457031 180.394531 C 219.210938 174.742188 217.96875 169.089844 216.726562 163.4375 C 216.046875 160.421875 214.238281 158.464844 211.296875 157.558594 C 210.429688 157.296875 209.566406 157.03125 208.660156 156.769531 C 198.523438 153.640625 188.421875 150.511719 178.285156 147.421875 C 175.648438 146.628906 174.253906 147.421875 173.953125 150.136719 C 173.765625 151.792969 173.988281 153.527344 174.066406 155.222656 C 174.101562 155.902344 174.515625 156.128906 175.15625 156.242188 C 179.152344 156.84375 182.65625 158.539062 185.632812 161.253906 C 193.773438 168.714844 201.875 176.175781 209.980469 183.710938 C 214.125 187.59375 216.308594 192.417969 216.535156 198.070312 Z M 175.121094 239.261719 C 177.757812 238.316406 180.019531 235.191406 180.09375 232.402344 C 180.171875 229.914062 178.324219 228.484375 175.910156 229.199219 C 173.160156 229.988281 170.710938 233.382812 170.710938 236.246094 C 170.75 238.808594 172.707031 240.128906 175.121094 239.261719 Z M 195.734375 217.253906 C 198.636719 216.5 201.273438 212.804688 201.046875 209.828125 C 200.898438 207.71875 199.351562 206.550781 197.242188 207.003906 C 194.414062 207.605469 191.738281 210.996094 191.703125 214.011719 C 191.664062 216.5 193.359375 217.855469 195.734375 217.253906 Z M 134.34375 188.460938 C 132.761719 187.066406 130.804688 187.40625 129.671875 189.214844 C 128.050781 191.816406 128.804688 196.449219 131.140625 198.449219 C 132.726562 199.804688 134.796875 199.539062 135.777344 197.695312 C 136.34375 196.636719 136.53125 195.394531 136.90625 194.226562 C 136.570312 191.929688 136.042969 189.929688 134.34375 188.460938 Z M 142.257812 237.453125 C 143.804688 238.921875 145.800781 238.734375 146.96875 237.035156 C 148.742188 234.472656 147.988281 229.5 145.5 227.539062 C 143.878906 226.257812 141.921875 226.597656 140.941406 228.40625 C 140.375 229.425781 140.1875 230.628906 139.996094 231.195312 C 140.148438 233.945312 140.675781 235.945312 142.257812 237.453125 Z M 136.605469 217.816406 C 138.226562 219.324219 140.300781 219.023438 141.429688 217.101562 C 142.9375 214.539062 142.257812 210.054688 140.035156 208.058594 C 138.300781 206.550781 136.230469 206.851562 135.175781 208.886719 C 134.683594 209.902344 134.496094 211.070312 134.195312 212.164062 C 134.457031 214.351562 134.984375 216.308594 136.605469 217.816406 Z M 175.195312 184.578125 C 176.289062 184.277344 177.304688 183.789062 177.609375 182.542969 C 177.910156 181.339844 177.382812 180.359375 176.515625 179.605469 C 174.140625 177.53125 171.390625 176.855469 168.335938 177.457031 C 167.167969 177.683594 166.152344 178.25 165.851562 179.53125 C 165.546875 180.8125 166.1875 181.753906 167.09375 182.542969 C 168.863281 184.128906 171.011719 184.691406 173.539062 184.84375 C 173.953125 184.769531 174.59375 184.730469 175.195312 184.578125 Z M 243.21875 160.761719 C 242.878906 159.632812 242.273438 158.726562 241.070312 158.464844 C 239.789062 158.199219 238.847656 158.878906 238.128906 159.859375 C 236.773438 161.816406 236.359375 164.042969 237.226562 166.300781 C 238.054688 168.5625 240.316406 168.941406 241.9375 167.132812 C 243.066406 165.851562 243.445312 164.304688 243.519531 162.382812 C 243.445312 162.007812 243.40625 161.367188 243.21875 160.761719 Z M 197.917969 141.203125 C 199.050781 139.996094 198.863281 138.566406 197.582031 137.738281 C 195.246094 136.230469 190.308594 137.324219 188.835938 139.660156 C 188.085938 140.828125 188.308594 142.070312 189.589844 142.671875 C 190.457031 143.089844 191.4375 143.277344 191.964844 143.425781 C 194.492188 143.277344 196.449219 142.824219 197.917969 141.203125 Z M 217.742188 147.382812 C 218.949219 146.066406 218.609375 144.519531 217.0625 143.730469 C 214.765625 142.597656 210.542969 143.464844 208.925781 145.460938 C 207.753906 146.855469 208.09375 148.402344 209.789062 149.117188 C 210.542969 149.417969 211.375 149.53125 211.902344 149.609375 C 214.3125 149.457031 216.273438 148.96875 217.742188 147.382812 Z M 233.910156 133.367188 C 235 132.160156 234.777344 130.726562 233.496094 129.898438 C 231.195312 128.464844 226.335938 129.523438 224.828125 131.820312 C 224.035156 133.027344 224.261719 134.308594 225.582031 134.949219 C 226.410156 135.363281 227.351562 135.511719 227.839844 135.625 C 230.480469 135.476562 232.4375 134.984375 233.910156 133.367188 Z M 213.21875 126.507812 C 214.3125 125.300781 214.125 123.867188 212.84375 123.039062 C 210.542969 121.570312 205.683594 122.625 204.175781 124.886719 C 203.347656 126.128906 203.609375 127.449219 204.96875 128.089844 C 205.757812 128.464844 206.699219 128.578125 207.152344 128.730469 C 209.753906 128.617188 211.710938 128.128906 213.21875 126.507812 Z M 206.851562 172.59375 C 208.886719 173.273438 210.46875 172.21875 210.507812 170.070312 C 210.542969 167.621094 208.546875 164.792969 206.210938 164.003906 C 204.175781 163.324219 202.628906 164.417969 202.628906 166.605469 C 202.628906 169.054688 204.589844 171.84375 206.851562 172.59375 Z M 206.851562 172.59375 " fill-opacity="1" fill-rule="nonzero"/></g></svg>