<svg xmlns="http://www.w3.org/2000/svg" xmlns:xlink="http://www.w3.org/1999/xlink" width="500" zoomAndPan="magnify" viewBox="0 0 375 374.999991" height="500" preserveAspectRatio="xMidYMid meet" version="1.0"><defs><clipPath id="5d13c34dad"><path d="M 112.5 229.066406 L 130 229.066406 L 130 246.621094 L 112.5 246.621094 Z M 112.5 229.066406 " clip-rule="nonzero"/></clipPath><clipPath id="743771f247"><path d="M 193 128.0625 L 211 128.0625 L 211 146 L 193 146 Z M 193 128.0625 " clip-rule="nonzero"/></clipPath><clipPath id="22b1019f7e"><path d="M 245 175 L 262.5 175 L 262.5 193 L 245 193 Z M 245 175 " clip-rule="nonzero"/></clipPath><clipPath id="9368195637"><path d="M 206 231 L 222 231 L 222 246.621094 L 206 246.621094 Z M 206 231 " clip-rule="nonzero"/></clipPath></defs><path fill="#ffffff" d="M 159.453125 203.84375 C 158.984375 203.84375 158.511719 203.664062 158.15625 203.308594 L 144.703125 189.847656 C 143.988281 189.132812 143.988281 187.976562 144.703125 187.265625 C 145.414062 186.550781 146.570312 186.550781 147.285156 187.265625 L 160.746094 200.726562 C 161.453125 201.4375 161.453125 202.59375 160.746094 203.308594 C 160.386719 203.664062 159.917969 203.84375 159.453125 203.84375 " fill-opacity="1" fill-rule="nonzero"/><path fill="#ffffff" d="M 145.992188 203.84375 C 145.53125 203.84375 145.058594 203.664062 144.703125 203.308594 C 143.988281 202.59375 143.988281 201.4375 144.703125 200.726562 L 158.15625 187.265625 C 158.875 186.550781 160.03125 186.550781 160.746094 187.265625 C 161.453125 187.976562 161.453125 189.132812 160.746094 189.847656 L 147.285156 203.308594 C 146.929688 203.664062 146.464844 203.84375 145.992188 203.84375 " fill-opacity="1" fill-rule="nonzero"/><g clip-path="url(#5d13c34dad)"><path fill="#ffffff" d="M 127.78125 246.621094 C 127.316406 246.621094 126.84375 246.445312 126.488281 246.085938 L 113.035156 232.632812 C 112.320312 231.917969 112.320312 230.765625 113.035156 230.050781 C 113.75 229.335938 114.90625 229.335938 115.617188 230.050781 L 129.070312 243.503906 C 129.785156 244.214844 129.785156 245.371094 129.070312 246.085938 C 128.714844 246.445312 128.25 246.621094 127.78125 246.621094 " fill-opacity="1" fill-rule="nonzero"/><path fill="#ffffff" d="M 114.328125 246.621094 C 113.863281 246.621094 113.390625 246.445312 113.035156 246.085938 C 112.320312 245.371094 112.320312 244.214844 113.035156 243.503906 L 126.488281 230.050781 C 127.203125 229.335938 128.359375 229.335938 129.070312 230.050781 C 129.785156 230.765625 129.785156 231.917969 129.070312 232.632812 L 115.617188 246.085938 C 115.261719 246.445312 114.796875 246.621094 114.328125 246.621094 " fill-opacity="1" fill-rule="nonzero"/></g><g clip-path="url(#743771f247)"><path fill="#ffffff" d="M 208.753906 145.691406 C 208.285156 145.691406 207.820312 145.515625 207.464844 145.15625 L 194.003906 131.703125 C 193.289062 130.988281 193.289062 129.835938 194.003906 129.121094 C 194.71875 128.40625 195.871094 128.40625 196.585938 129.121094 L 210.046875 142.574219 C 210.761719 143.285156 210.761719 144.441406 210.046875 145.15625 C 209.691406 145.515625 209.21875 145.691406 208.753906 145.691406 " fill-opacity="1" fill-rule="nonzero"/><path fill="#ffffff" d="M 195.292969 145.691406 C 194.832031 145.691406 194.359375 145.515625 194.003906 145.15625 C 193.289062 144.441406 193.289062 143.285156 194.003906 142.574219 L 207.464844 129.121094 C 208.175781 128.40625 209.332031 128.40625 210.046875 129.121094 C 210.761719 129.835938 210.761719 130.988281 210.046875 131.703125 L 196.585938 145.15625 C 196.230469 145.515625 195.765625 145.691406 195.292969 145.691406 " fill-opacity="1" fill-rule="nonzero"/></g><g clip-path="url(#22b1019f7e)"><path fill="#ffffff" d="M 260.492188 192.632812 C 260.019531 192.632812 259.554688 192.453125 259.199219 192.097656 L 245.746094 178.636719 C 245.03125 177.921875 245.03125 176.765625 245.746094 176.050781 C 246.460938 175.339844 247.617188 175.339844 248.328125 176.050781 L 261.78125 189.511719 C 262.496094 190.226562 262.496094 191.382812 261.78125 192.097656 C 261.425781 192.453125 260.960938 192.632812 260.492188 192.632812 " fill-opacity="1" fill-rule="nonzero"/><path fill="#ffffff" d="M 247.039062 192.632812 C 246.566406 192.632812 246.101562 192.453125 245.746094 192.097656 C 245.03125 191.382812 245.03125 190.226562 245.746094 189.511719 L 259.199219 176.050781 C 259.914062 175.339844 261.066406 175.339844 261.78125 176.050781 C 262.496094 176.765625 262.496094 177.921875 261.78125 178.636719 L 248.328125 192.097656 C 247.972656 192.453125 247.5 192.632812 247.039062 192.632812 " fill-opacity="1" fill-rule="nonzero"/></g><path fill="#ffffff" d="M 199.863281 161.914062 C 199.75 161.914062 199.628906 161.898438 199.503906 161.878906 C 198.519531 161.679688 197.871094 160.722656 198.070312 159.730469 C 198.699219 156.554688 199.214844 153.265625 199.589844 149.945312 C 199.710938 148.945312 200.613281 148.226562 201.617188 148.339844 C 202.625 148.453125 203.339844 149.359375 203.222656 150.367188 C 202.832031 153.777344 202.304688 157.167969 201.652344 160.445312 C 201.484375 161.316406 200.71875 161.914062 199.863281 161.914062 " fill-opacity="1" fill-rule="nonzero"/><path fill="#ffffff" d="M 188.113281 193.710938 C 187.808594 193.710938 187.496094 193.628906 187.207031 193.464844 C 186.332031 192.960938 186.03125 191.839844 186.539062 190.96875 C 190.277344 184.472656 193.3125 177.386719 195.558594 169.894531 C 195.84375 168.921875 196.863281 168.378906 197.828125 168.664062 C 198.792969 168.953125 199.339844 169.972656 199.054688 170.933594 C 196.738281 178.699219 193.589844 186.058594 189.699219 192.796875 C 189.363281 193.378906 188.75 193.710938 188.113281 193.710938 Z M 166.164062 219.472656 C 165.625 219.472656 165.097656 219.238281 164.734375 218.789062 C 164.101562 218.003906 164.226562 216.855469 165.011719 216.21875 C 170.929688 211.445312 176.253906 205.882812 180.828125 199.691406 C 181.429688 198.882812 182.570312 198.703125 183.382812 199.304688 C 184.191406 199.902344 184.367188 201.054688 183.769531 201.859375 C 179.007812 208.304688 173.46875 214.09375 167.304688 219.066406 C 166.96875 219.335938 166.5625 219.472656 166.164062 219.472656 " fill-opacity="1" fill-rule="nonzero"/><path fill="#ffffff" d="M 148.585938 230.308594 C 147.847656 230.308594 147.15625 229.855469 146.878906 229.128906 C 146.515625 228.1875 146.992188 227.132812 147.933594 226.773438 C 147.964844 226.761719 151.4375 225.410156 156.511719 222.269531 C 157.371094 221.734375 158.488281 222 159.023438 222.855469 C 159.5625 223.710938 159.289062 224.839844 158.441406 225.375 C 153.039062 228.722656 149.390625 230.128906 149.234375 230.1875 C 149.019531 230.269531 148.796875 230.308594 148.585938 230.308594 " fill-opacity="1" fill-rule="nonzero"/><path fill="#ffffff" d="M 187.410156 163.535156 C 186.878906 163.535156 186.359375 163.304688 185.996094 162.871094 C 185.359375 162.09375 185.46875 160.945312 186.246094 160.300781 L 200.246094 148.746094 C 201.027344 148.105469 202.175781 148.21875 202.816406 148.996094 C 203.460938 149.773438 203.351562 150.921875 202.574219 151.566406 L 188.570312 163.121094 C 188.230469 163.398438 187.816406 163.535156 187.410156 163.535156 " fill-opacity="1" fill-rule="nonzero"/><path fill="#ffffff" d="M 209.652344 168.160156 C 208.984375 168.160156 208.347656 167.796875 208.019531 167.160156 L 199.785156 150.988281 C 199.328125 150.089844 199.683594 148.988281 200.582031 148.53125 C 201.484375 148.070312 202.574219 148.433594 203.039062 149.324219 L 211.28125 165.503906 C 211.738281 166.402344 211.382812 167.503906 210.480469 167.960938 C 210.210938 168.09375 209.933594 168.160156 209.652344 168.160156 " fill-opacity="1" fill-rule="nonzero"/><path fill="#ffffff" d="M 166.753906 231.835938 C 155.75 231.835938 148.398438 230.308594 148.191406 230.265625 C 147.207031 230.050781 146.585938 229.078125 146.800781 228.09375 C 147.015625 227.101562 147.992188 226.480469 148.96875 226.695312 C 149.503906 226.808594 200.777344 237.394531 235.289062 200.6875 L 221.914062 202.066406 C 220.902344 202.144531 220.011719 201.4375 219.910156 200.4375 C 219.808594 199.433594 220.539062 198.535156 221.539062 198.433594 L 239.601562 196.578125 C 240.351562 196.515625 241.050781 196.886719 241.398438 197.542969 C 241.75 198.199219 241.664062 199.003906 241.179688 199.570312 C 218.117188 226.902344 186.539062 231.835938 166.753906 231.835938 " fill-opacity="1" fill-rule="nonzero"/><path fill="#ffffff" d="M 237.679688 218.253906 C 237.609375 218.253906 237.546875 218.246094 237.464844 218.238281 C 236.46875 218.125 235.746094 217.210938 235.867188 216.210938 L 237.964844 198.183594 C 238.085938 197.183594 238.964844 196.457031 239.992188 196.578125 C 241 196.691406 241.714844 197.605469 241.597656 198.605469 L 239.492188 216.632812 C 239.386719 217.566406 238.601562 218.253906 237.679688 218.253906 " fill-opacity="1" fill-rule="nonzero"/><path fill="#ffffff" d="M 205.527344 196.222656 C 203.394531 196.222656 201.660156 197.957031 201.660156 200.089844 C 201.660156 202.222656 203.394531 203.964844 205.527344 203.964844 C 207.664062 203.964844 209.398438 202.222656 209.398438 200.089844 C 209.398438 197.957031 207.664062 196.222656 205.527344 196.222656 Z M 205.527344 207.617188 C 201.382812 207.617188 198.007812 204.242188 198.007812 200.089844 C 198.007812 195.941406 201.382812 192.566406 205.527344 192.566406 C 209.683594 192.566406 213.050781 195.941406 213.050781 200.089844 C 213.050781 204.242188 209.683594 207.617188 205.527344 207.617188 " fill-opacity="1" fill-rule="nonzero"/><g clip-path="url(#9368195637)"><path fill="#ffffff" d="M 214.449219 235.222656 C 212.316406 235.222656 210.582031 236.964844 210.582031 239.097656 C 210.582031 241.234375 212.316406 242.96875 214.449219 242.96875 C 216.585938 242.96875 218.320312 241.234375 218.320312 239.097656 C 218.320312 236.964844 216.585938 235.222656 214.449219 235.222656 Z M 214.449219 246.621094 C 210.304688 246.621094 206.929688 243.246094 206.929688 239.097656 C 206.929688 234.945312 210.304688 231.570312 214.449219 231.570312 C 218.605469 231.570312 221.972656 234.945312 221.972656 239.097656 C 221.972656 243.246094 218.605469 246.621094 214.449219 246.621094 " fill-opacity="1" fill-rule="nonzero"/></g><path fill="#ffffff" d="M 127.78125 206.441406 C 125.644531 206.441406 123.910156 208.175781 123.910156 210.308594 C 123.910156 212.445312 125.644531 214.183594 127.78125 214.183594 C 129.914062 214.183594 131.65625 212.445312 131.65625 210.308594 C 131.65625 208.175781 129.914062 206.441406 127.78125 206.441406 Z M 127.78125 217.839844 C 123.632812 217.839844 120.257812 214.464844 120.257812 210.308594 C 120.257812 206.164062 123.632812 202.789062 127.78125 202.789062 C 131.933594 202.789062 135.308594 206.164062 135.308594 210.308594 C 135.308594 214.464844 131.933594 217.839844 127.78125 217.839844 " fill-opacity="1" fill-rule="nonzero"/><path fill="#ffffff" d="M 224.863281 175.296875 C 222.730469 175.296875 220.996094 177.03125 220.996094 179.164062 C 220.996094 181.304688 222.730469 183.039062 224.863281 183.039062 C 226.996094 183.039062 228.730469 181.304688 228.730469 179.164062 C 228.730469 177.03125 226.996094 175.296875 224.863281 175.296875 Z M 224.863281 186.695312 C 220.710938 186.695312 217.339844 183.316406 217.339844 179.164062 C 217.339844 175.019531 220.710938 171.640625 224.863281 171.640625 C 229.015625 171.640625 232.386719 175.019531 232.386719 179.164062 C 232.386719 183.316406 229.015625 186.695312 224.863281 186.695312 " fill-opacity="1" fill-rule="nonzero"/><path fill="#ffffff" d="M 168.253906 170.363281 C 166.121094 170.363281 164.386719 172.097656 164.386719 174.234375 C 164.386719 176.367188 166.121094 178.101562 168.253906 178.101562 C 170.386719 178.101562 172.128906 176.367188 172.128906 174.234375 C 172.128906 172.097656 170.386719 170.363281 168.253906 170.363281 Z M 168.253906 181.753906 C 164.105469 181.753906 160.730469 178.378906 160.730469 174.234375 C 160.730469 170.085938 164.105469 166.710938 168.253906 166.710938 C 172.40625 166.710938 175.78125 170.085938 175.78125 174.234375 C 175.78125 178.378906 172.40625 181.753906 168.253906 181.753906 " fill-opacity="1" fill-rule="nonzero"/></svg>