<svg xmlns="http://www.w3.org/2000/svg" xmlns:xlink="http://www.w3.org/1999/xlink" width="500" zoomAndPan="magnify" viewBox="0 0 375 374.999991" height="500" preserveAspectRatio="xMidYMid meet" version="1.0"><defs><filter x="0%" y="0%" width="100%" height="100%" id="01265d4b36"><feColorMatrix values="0 0 0 0 1 0 0 0 0 1 0 0 0 0 1 0 0 0 1 0" color-interpolation-filters="sRGB"/></filter><g/><mask id="c44d632006"><g filter="url(#01265d4b36)"><rect x="-37.5" width="450" fill="#000000" y="-37.499999" height="449.999989" fill-opacity="0.28"/></g></mask><clipPath id="6c6e61ba5a"><path d="M 0.140625 0.5 L 284.859375 0.5 L 284.859375 285.222656 L 0.140625 285.222656 Z M 0.140625 0.5 " clip-rule="nonzero"/></clipPath><clipPath id="fe95155812"><path d="M 17.390625 0.5 L 267.609375 0.5 C 272.1875 0.5 276.574219 2.316406 279.808594 5.550781 C 283.042969 8.789062 284.859375 13.175781 284.859375 17.75 L 284.859375 267.972656 C 284.859375 272.546875 283.042969 276.933594 279.808594 280.167969 C 276.574219 283.40625 272.1875 285.222656 267.609375 285.222656 L 17.390625 285.222656 C 12.8125 285.222656 8.425781 283.40625 5.191406 280.167969 C 1.957031 276.933594 0.140625 272.546875 0.140625 267.972656 L 0.140625 17.75 C 0.140625 13.175781 1.957031 8.789062 5.191406 5.550781 C 8.425781 2.316406 12.8125 0.5 17.390625 0.5 Z M 17.390625 0.5 " clip-rule="nonzero"/></clipPath><clipPath id="bfba576747"><rect x="0" width="285" y="0" height="286"/></clipPath><clipPath id="355b880368"><path d="M 112.5 94 L 262 94 L 262 238 L 112.5 238 Z M 112.5 94 " clip-rule="nonzero"/></clipPath></defs><g mask="url(#c44d632006)"><g transform="matrix(1, 0, 0, 1, 45, 37)"><g clip-path="url(#bfba576747)"><g clip-path="url(#6c6e61ba5a)"><g clip-path="url(#fe95155812)"><path fill="#415358" d="M 0.140625 0.5 L 284.859375 0.5 L 284.859375 285.222656 L 0.140625 285.222656 Z M 0.140625 0.5 " fill-opacity="1" fill-rule="nonzero"/></g></g></g></g></g><g clip-path="url(#355b880368)"><path fill="#ffffff" d="M 112.5625 194.824219 C 112.527344 191.28125 113.65625 187.929688 114.484375 184.539062 C 116.59375 175.984375 118.667969 167.429688 120.855469 158.910156 C 122.699219 151.828125 127.109375 146.964844 134.121094 144.816406 C 145.085938 141.464844 156.128906 138.449219 167.167969 135.320312 C 168.636719 134.90625 170.222656 134.832031 171.765625 134.71875 C 172.519531 134.640625 172.820312 134.566406 172.707031 133.699219 C 171.84375 127.332031 173.953125 122.054688 178.738281 117.722656 C 185.445312 111.691406 192.003906 105.550781 198.671875 99.445312 C 203.535156 95.035156 209.148438 93.640625 215.480469 95.414062 C 224.488281 97.9375 233.496094 100.539062 242.464844 103.175781 C 248.832031 105.058594 253.054688 109.242188 254.671875 115.6875 C 256.933594 124.695312 259.046875 133.738281 261.042969 142.820312 C 262.472656 149.339844 260.476562 155.03125 255.578125 159.550781 C 248.792969 165.808594 241.9375 171.949219 235.113281 178.132812 C 230.066406 182.691406 224.222656 184.046875 217.667969 182.164062 C 216.195312 181.75 216.121094 181.824219 215.746094 183.371094 C 213.371094 193.316406 211.109375 203.304688 208.585938 213.214844 C 206.699219 220.640625 201.953125 225.652344 194.605469 227.835938 C 183.824219 231.039062 173.011719 234.019531 162.15625 236.882812 C 155.109375 238.765625 148.628906 237.183594 143.203125 232.246094 C 134.949219 224.710938 126.769531 217.023438 118.667969 209.335938 C 114.5625 205.414062 112.601562 200.476562 112.5625 194.824219 Z M 214.386719 177.152344 C 214.273438 177.113281 214.164062 177.113281 214.050781 177.074219 C 214.050781 176.660156 214.085938 176.210938 214.050781 175.757812 C 213.859375 172.289062 212.542969 171.308594 209.148438 172.289062 C 204.4375 173.609375 199.765625 174.929688 195.054688 176.210938 C 186.953125 178.46875 178.851562 180.769531 170.785156 183.03125 C 167.246094 184.011719 165.132812 186.121094 164.265625 189.8125 C 161.253906 203.078125 158.125 216.34375 155.035156 229.570312 C 154.28125 232.8125 155.636719 234.507812 159.027344 234.28125 C 160.988281 234.132812 162.984375 233.792969 164.871094 233.265625 C 174.179688 230.664062 183.488281 227.949219 192.792969 225.351562 C 199.992188 223.316406 204.4375 218.71875 206.210938 211.480469 C 208.320312 202.851562 210.46875 194.222656 212.578125 185.59375 C 213.257812 182.765625 213.824219 179.941406 214.386719 177.152344 Z M 163.0625 187.777344 C 163.023438 184.386719 161.78125 182.3125 159.933594 180.542969 C 150.171875 171.234375 140.488281 161.964844 130.726562 152.65625 C 128.578125 150.621094 126.695312 150.808594 124.925781 153.222656 C 123.453125 155.257812 122.585938 157.515625 122.023438 159.929688 C 119.6875 169.800781 117.386719 179.714844 115.011719 189.585938 C 113.355469 196.597656 115.164062 202.589844 120.328125 207.488281 C 127.789062 214.574219 135.363281 221.507812 142.898438 228.515625 C 144.105469 229.644531 145.347656 230.777344 146.707031 231.71875 C 148.628906 233.039062 151.003906 232.398438 152.019531 230.324219 C 152.472656 229.421875 152.773438 228.402344 153 227.386719 C 155.789062 216.53125 158.539062 205.714844 161.289062 194.902344 C 162.042969 192.300781 162.648438 189.664062 163.0625 187.777344 Z M 167.960938 181.863281 C 168.941406 181.671875 169.921875 181.558594 170.863281 181.296875 C 181.675781 178.167969 192.457031 174.964844 203.308594 171.800781 C 205.417969 171.195312 207.492188 170.632812 209.566406 169.953125 C 211.335938 169.386719 211.75 168.105469 210.621094 166.636719 C 209.867188 165.65625 209.074219 164.714844 208.171875 163.886719 C 200.332031 156.460938 192.492188 149.039062 184.617188 141.652344 C 179.492188 136.828125 173.460938 135.320312 166.679688 137.203125 C 156.277344 140.070312 145.914062 142.972656 135.511719 145.871094 C 134.34375 146.210938 133.140625 146.625 132.046875 147.152344 C 130.199219 148.058594 129.9375 149.714844 131.292969 151.261719 C 131.519531 151.488281 131.746094 151.714844 131.972656 151.941406 C 134.609375 154.425781 137.246094 156.914062 139.886719 159.363281 C 146.855469 165.84375 153.867188 172.289062 160.835938 178.773438 C 162.871094 180.617188 165.097656 181.863281 167.960938 181.863281 Z M 258.96875 145.949219 C 258.933594 145.421875 258.894531 144.476562 258.707031 143.613281 C 256.933594 135.507812 255.050781 127.445312 253.277344 119.34375 C 252.675781 116.554688 252.074219 113.765625 250.453125 111.316406 C 249.210938 109.46875 247.816406 109.167969 246.195312 110.636719 C 237.640625 118.363281 229.085938 126.164062 220.53125 133.925781 C 218.042969 136.148438 217.253906 138.75 218.15625 142.066406 C 219.550781 147.152344 220.683594 152.316406 221.925781 157.441406 C 223.355469 163.472656 224.789062 169.464844 226.222656 175.492188 C 226.9375 178.507812 228.519531 179.222656 231.15625 177.679688 C 232.550781 176.886719 233.871094 175.90625 235.078125 174.777344 C 241.445312 168.972656 247.816406 163.207031 254.144531 157.328125 C 257.3125 154.390625 258.894531 150.695312 258.96875 145.949219 Z M 210.46875 96.054688 C 206.4375 96.355469 202.933594 97.710938 199.804688 100.539062 C 192.945312 106.71875 186.085938 112.898438 179.226562 119.152344 C 178.511719 119.792969 177.832031 120.472656 177.269531 121.1875 C 175.949219 122.808594 176.363281 124.355469 178.363281 124.917969 C 189.515625 128.199219 200.671875 131.4375 211.824219 134.679688 C 214.878906 135.546875 217.554688 134.792969 219.851562 132.644531 C 226.824219 126.199219 233.757812 119.71875 240.691406 113.273438 C 242.050781 111.992188 243.445312 110.75 244.800781 109.46875 C 246.382812 107.960938 246.195312 106.90625 244.195312 105.964844 C 243.332031 105.550781 242.425781 105.25 241.519531 104.945312 C 233.382812 102.460938 225.203125 99.972656 217.027344 97.597656 C 214.878906 96.957031 212.65625 96.582031 210.46875 96.054688 Z M 216.535156 176.773438 C 216.648438 179.714844 216.648438 179.714844 219.625 180.355469 C 220.003906 180.429688 220.417969 180.503906 220.792969 180.503906 C 222.828125 180.617188 224.335938 179.1875 224.222656 177.152344 C 224.1875 176.472656 224.074219 175.832031 223.921875 175.152344 C 222.792969 169.800781 221.625 164.453125 220.457031 159.101562 C 219.210938 153.449219 217.96875 147.792969 216.726562 142.140625 C 216.046875 139.128906 214.238281 137.167969 211.296875 136.261719 C 210.429688 136 209.566406 135.734375 208.660156 135.472656 C 198.523438 132.34375 188.421875 129.214844 178.285156 126.125 C 175.648438 125.335938 174.253906 126.125 173.953125 128.839844 C 173.765625 130.496094 173.988281 132.230469 174.066406 133.925781 C 174.101562 134.605469 174.515625 134.832031 175.15625 134.945312 C 179.152344 135.546875 182.65625 137.242188 185.632812 139.957031 C 193.773438 147.417969 201.875 154.878906 209.980469 162.417969 C 214.125 166.296875 216.308594 171.121094 216.535156 176.773438 Z M 175.121094 217.964844 C 177.757812 217.023438 180.019531 213.894531 180.09375 211.105469 C 180.171875 208.617188 178.324219 207.1875 175.910156 207.902344 C 173.160156 208.695312 170.710938 212.085938 170.710938 214.949219 C 170.75 217.511719 172.707031 218.832031 175.121094 217.964844 Z M 195.734375 195.957031 C 198.636719 195.203125 201.273438 191.507812 201.046875 188.53125 C 200.898438 186.421875 199.351562 185.253906 197.242188 185.707031 C 194.414062 186.308594 191.738281 189.699219 191.703125 192.714844 C 191.664062 195.203125 193.359375 196.558594 195.734375 195.957031 Z M 134.34375 167.164062 C 132.761719 165.769531 130.804688 166.109375 129.671875 167.917969 C 128.050781 170.519531 128.804688 175.152344 131.140625 177.152344 C 132.726562 178.507812 134.796875 178.242188 135.777344 176.398438 C 136.34375 175.34375 136.53125 174.097656 136.90625 172.929688 C 136.570312 170.632812 136.042969 168.632812 134.34375 167.164062 Z M 142.257812 216.15625 C 143.804688 217.625 145.800781 217.4375 146.96875 215.742188 C 148.742188 213.179688 147.988281 208.203125 145.5 206.242188 C 143.878906 204.960938 141.921875 205.300781 140.941406 207.109375 C 140.375 208.128906 140.1875 209.335938 139.996094 209.898438 C 140.148438 212.652344 140.675781 214.648438 142.257812 216.15625 Z M 136.605469 196.519531 C 138.226562 198.027344 140.300781 197.726562 141.429688 195.804688 C 142.9375 193.242188 142.257812 188.757812 140.035156 186.761719 C 138.300781 185.253906 136.230469 185.554688 135.175781 187.589844 C 134.683594 188.609375 134.496094 189.777344 134.195312 190.867188 C 134.457031 193.054688 134.984375 195.015625 136.605469 196.519531 Z M 175.195312 163.28125 C 176.289062 162.980469 177.304688 162.492188 177.609375 161.25 C 177.910156 160.042969 177.382812 159.0625 176.515625 158.308594 C 174.140625 156.234375 171.390625 155.558594 168.335938 156.160156 C 167.167969 156.386719 166.152344 156.953125 165.851562 158.234375 C 165.546875 159.515625 166.1875 160.457031 167.09375 161.25 C 168.863281 162.832031 171.011719 163.394531 173.539062 163.546875 C 173.953125 163.472656 174.59375 163.433594 175.195312 163.28125 Z M 243.21875 139.464844 C 242.878906 138.335938 242.273438 137.429688 241.070312 137.167969 C 239.789062 136.902344 238.847656 137.582031 238.128906 138.5625 C 236.773438 140.519531 236.359375 142.746094 237.226562 145.007812 C 238.054688 147.265625 240.316406 147.644531 241.9375 145.835938 C 243.066406 144.554688 243.445312 143.007812 243.519531 141.085938 C 243.445312 140.710938 243.40625 140.070312 243.21875 139.464844 Z M 197.917969 119.90625 C 199.050781 118.703125 198.863281 117.269531 197.582031 116.441406 C 195.246094 114.933594 190.308594 116.027344 188.835938 118.363281 C 188.085938 119.53125 188.308594 120.773438 189.589844 121.378906 C 190.457031 121.792969 191.4375 121.980469 191.964844 122.132812 C 194.492188 121.980469 196.449219 121.527344 197.917969 119.90625 Z M 217.742188 126.089844 C 218.949219 124.769531 218.609375 123.222656 217.0625 122.433594 C 214.765625 121.300781 210.542969 122.167969 208.925781 124.167969 C 207.753906 125.558594 208.09375 127.105469 209.789062 127.820312 C 210.542969 128.121094 211.375 128.234375 211.902344 128.3125 C 214.3125 128.160156 216.273438 127.671875 217.742188 126.089844 Z M 233.910156 112.070312 C 235 110.863281 234.777344 109.429688 233.496094 108.601562 C 231.195312 107.171875 226.335938 108.226562 224.828125 110.523438 C 224.035156 111.730469 224.261719 113.011719 225.582031 113.652344 C 226.410156 114.066406 227.351562 114.21875 227.839844 114.332031 C 230.480469 114.179688 232.4375 113.691406 233.910156 112.070312 Z M 213.21875 105.210938 C 214.3125 104.003906 214.125 102.574219 212.84375 101.742188 C 210.542969 100.273438 205.683594 101.328125 204.175781 103.589844 C 203.347656 104.832031 203.609375 106.152344 204.96875 106.792969 C 205.757812 107.171875 206.699219 107.28125 207.152344 107.433594 C 209.753906 107.320312 211.710938 106.832031 213.21875 105.210938 Z M 206.851562 151.300781 C 208.886719 151.976562 210.46875 150.921875 210.507812 148.773438 C 210.542969 146.324219 208.546875 143.5 206.210938 142.707031 C 204.175781 142.027344 202.628906 143.121094 202.628906 145.308594 C 202.628906 147.757812 204.589844 150.546875 206.851562 151.300781 Z M 206.851562 151.300781 " fill-opacity="1" fill-rule="nonzero"/></g><g fill="#ffffff" fill-opacity="1"><g transform="translate(134.809454, 277.948547)"><g><path d="M 9.15625 0.203125 C 7.675781 0.203125 6.34375 -0.0351562 5.15625 -0.515625 C 3.976562 -1.003906 3.035156 -1.722656 2.328125 -2.671875 C 1.628906 -3.617188 1.257812 -4.757812 1.21875 -6.09375 L 6.5 -6.09375 C 6.570312 -5.332031 6.832031 -4.753906 7.28125 -4.359375 C 7.726562 -3.960938 8.304688 -3.765625 9.015625 -3.765625 C 9.753906 -3.765625 10.332031 -3.929688 10.75 -4.265625 C 11.175781 -4.609375 11.390625 -5.082031 11.390625 -5.6875 C 11.390625 -6.1875 11.21875 -6.597656 10.875 -6.921875 C 10.539062 -7.253906 10.128906 -7.523438 9.640625 -7.734375 C 9.148438 -7.953125 8.453125 -8.195312 7.546875 -8.46875 C 6.222656 -8.875 5.144531 -9.28125 4.3125 -9.6875 C 3.488281 -10.09375 2.773438 -10.691406 2.171875 -11.484375 C 1.578125 -12.273438 1.28125 -13.3125 1.28125 -14.59375 C 1.28125 -16.476562 1.960938 -17.957031 3.328125 -19.03125 C 4.703125 -20.101562 6.492188 -20.640625 8.703125 -20.640625 C 10.941406 -20.640625 12.75 -20.101562 14.125 -19.03125 C 15.5 -17.957031 16.234375 -16.46875 16.328125 -14.5625 L 10.96875 -14.5625 C 10.925781 -15.21875 10.679688 -15.734375 10.234375 -16.109375 C 9.785156 -16.484375 9.21875 -16.671875 8.53125 -16.671875 C 7.925781 -16.671875 7.441406 -16.507812 7.078125 -16.1875 C 6.710938 -15.875 6.53125 -15.414062 6.53125 -14.8125 C 6.53125 -14.15625 6.835938 -13.644531 7.453125 -13.28125 C 8.066406 -12.914062 9.035156 -12.519531 10.359375 -12.09375 C 11.671875 -11.644531 12.738281 -11.21875 13.5625 -10.8125 C 14.382812 -10.40625 15.09375 -9.816406 15.6875 -9.046875 C 16.289062 -8.273438 16.59375 -7.28125 16.59375 -6.0625 C 16.59375 -4.90625 16.296875 -3.851562 15.703125 -2.90625 C 15.109375 -1.957031 14.25 -1.203125 13.125 -0.640625 C 12.007812 -0.078125 10.6875 0.203125 9.15625 0.203125 Z M 9.15625 0.203125 "/></g></g></g><g fill="#ffffff" fill-opacity="1"><g transform="translate(152.639646, 277.948547)"><g><path d="M 9.15625 0.234375 C 7.570312 0.234375 6.144531 -0.101562 4.875 -0.78125 C 3.613281 -1.457031 2.617188 -2.421875 1.890625 -3.671875 C 1.171875 -4.929688 0.8125 -6.40625 0.8125 -8.09375 C 0.8125 -9.75 1.175781 -11.210938 1.90625 -12.484375 C 2.644531 -13.753906 3.648438 -14.722656 4.921875 -15.390625 C 6.203125 -16.066406 7.632812 -16.40625 9.21875 -16.40625 C 10.800781 -16.40625 12.226562 -16.066406 13.5 -15.390625 C 14.78125 -14.722656 15.785156 -13.753906 16.515625 -12.484375 C 17.253906 -11.210938 17.625 -9.75 17.625 -8.09375 C 17.625 -6.425781 17.253906 -4.957031 16.515625 -3.6875 C 15.773438 -2.425781 14.757812 -1.457031 13.46875 -0.78125 C 12.1875 -0.101562 10.75 0.234375 9.15625 0.234375 Z M 9.15625 -4.0625 C 10.101562 -4.0625 10.910156 -4.40625 11.578125 -5.09375 C 12.253906 -5.789062 12.59375 -6.789062 12.59375 -8.09375 C 12.59375 -9.382812 12.265625 -10.378906 11.609375 -11.078125 C 10.960938 -11.773438 10.164062 -12.125 9.21875 -12.125 C 8.25 -12.125 7.445312 -11.78125 6.8125 -11.09375 C 6.175781 -10.40625 5.859375 -9.40625 5.859375 -8.09375 C 5.859375 -6.789062 6.171875 -5.789062 6.796875 -5.09375 C 7.429688 -4.40625 8.21875 -4.0625 9.15625 -4.0625 Z M 9.15625 -4.0625 "/></g></g></g><g fill="#ffffff" fill-opacity="1"><g transform="translate(171.107662, 277.948547)"><g><path d="M 6.75 -13.484375 C 7.332031 -14.367188 8.054688 -15.066406 8.921875 -15.578125 C 9.796875 -16.097656 10.765625 -16.359375 11.828125 -16.359375 L 11.828125 -11.109375 L 10.46875 -11.109375 C 9.226562 -11.109375 8.296875 -10.84375 7.671875 -10.3125 C 7.054688 -9.78125 6.75 -8.847656 6.75 -7.515625 L 6.75 0 L 1.796875 0 L 1.796875 -16.1875 L 6.75 -16.1875 Z M 6.75 -13.484375 "/></g></g></g><g fill="#ffffff" fill-opacity="1"><g transform="translate(183.516318, 277.948547)"><g><path d="M 10.8125 -4.203125 L 10.8125 0 L 8.296875 0 C 6.492188 0 5.085938 -0.4375 4.078125 -1.3125 C 3.078125 -2.195312 2.578125 -3.632812 2.578125 -5.625 L 2.578125 -12.0625 L 0.609375 -12.0625 L 0.609375 -16.1875 L 2.578125 -16.1875 L 2.578125 -20.125 L 7.546875 -20.125 L 7.546875 -16.1875 L 10.78125 -16.1875 L 10.78125 -12.0625 L 7.546875 -12.0625 L 7.546875 -5.5625 C 7.546875 -5.082031 7.660156 -4.734375 7.890625 -4.515625 C 8.117188 -4.304688 8.503906 -4.203125 9.046875 -4.203125 Z M 10.8125 -4.203125 "/></g></g></g><g fill="#ffffff" fill-opacity="1"><g transform="translate(195.287138, 277.948547)"><g><path d="M 17.046875 -8.359375 C 17.046875 -7.890625 17.019531 -7.40625 16.96875 -6.90625 L 5.734375 -6.90625 C 5.816406 -5.894531 6.140625 -5.125 6.703125 -4.59375 C 7.273438 -4.0625 7.976562 -3.796875 8.8125 -3.796875 C 10.050781 -3.796875 10.910156 -4.316406 11.390625 -5.359375 L 16.671875 -5.359375 C 16.398438 -4.296875 15.910156 -3.335938 15.203125 -2.484375 C 14.503906 -1.640625 13.625 -0.972656 12.5625 -0.484375 C 11.5 -0.00390625 10.304688 0.234375 8.984375 0.234375 C 7.398438 0.234375 5.988281 -0.101562 4.75 -0.78125 C 3.519531 -1.457031 2.554688 -2.421875 1.859375 -3.671875 C 1.160156 -4.929688 0.8125 -6.40625 0.8125 -8.09375 C 0.8125 -9.769531 1.15625 -11.238281 1.84375 -12.5 C 2.53125 -13.757812 3.488281 -14.722656 4.71875 -15.390625 C 5.957031 -16.066406 7.378906 -16.40625 8.984375 -16.40625 C 10.554688 -16.40625 11.953125 -16.078125 13.171875 -15.421875 C 14.390625 -14.765625 15.335938 -13.828125 16.015625 -12.609375 C 16.703125 -11.390625 17.046875 -9.972656 17.046875 -8.359375 Z M 11.984375 -9.65625 C 11.984375 -10.507812 11.691406 -11.1875 11.109375 -11.6875 C 10.523438 -12.1875 9.800781 -12.4375 8.9375 -12.4375 C 8.101562 -12.4375 7.398438 -12.191406 6.828125 -11.703125 C 6.253906 -11.222656 5.898438 -10.539062 5.765625 -9.65625 Z M 11.984375 -9.65625 "/></g></g></g><g fill="#ffffff" fill-opacity="1"><g transform="translate(213.146317, 277.948547)"><g><path d="M 4.296875 -17.859375 C 3.421875 -17.859375 2.707031 -18.113281 2.15625 -18.625 C 1.601562 -19.144531 1.328125 -19.78125 1.328125 -20.53125 C 1.328125 -21.300781 1.601562 -21.941406 2.15625 -22.453125 C 2.707031 -22.972656 3.421875 -23.234375 4.296875 -23.234375 C 5.140625 -23.234375 5.835938 -22.972656 6.390625 -22.453125 C 6.941406 -21.941406 7.21875 -21.300781 7.21875 -20.53125 C 7.21875 -19.78125 6.941406 -19.144531 6.390625 -18.625 C 5.835938 -18.113281 5.140625 -17.859375 4.296875 -17.859375 Z M 6.75 -16.1875 L 6.75 0 L 1.796875 0 L 1.796875 -16.1875 Z M 6.75 -16.1875 "/></g></g></g><g fill="#ffffff" fill-opacity="1"><g transform="translate(221.699013, 277.948547)"><g><path d="M 9.15625 0.234375 C 7.570312 0.234375 6.144531 -0.101562 4.875 -0.78125 C 3.613281 -1.457031 2.617188 -2.421875 1.890625 -3.671875 C 1.171875 -4.929688 0.8125 -6.40625 0.8125 -8.09375 C 0.8125 -9.75 1.175781 -11.210938 1.90625 -12.484375 C 2.644531 -13.753906 3.648438 -14.722656 4.921875 -15.390625 C 6.203125 -16.066406 7.632812 -16.40625 9.21875 -16.40625 C 10.800781 -16.40625 12.226562 -16.066406 13.5 -15.390625 C 14.78125 -14.722656 15.785156 -13.753906 16.515625 -12.484375 C 17.253906 -11.210938 17.625 -9.75 17.625 -8.09375 C 17.625 -6.425781 17.253906 -4.957031 16.515625 -3.6875 C 15.773438 -2.425781 14.757812 -1.457031 13.46875 -0.78125 C 12.1875 -0.101562 10.75 0.234375 9.15625 0.234375 Z M 9.15625 -4.0625 C 10.101562 -4.0625 10.910156 -4.40625 11.578125 -5.09375 C 12.253906 -5.789062 12.59375 -6.789062 12.59375 -8.09375 C 12.59375 -9.382812 12.265625 -10.378906 11.609375 -11.078125 C 10.960938 -11.773438 10.164062 -12.125 9.21875 -12.125 C 8.25 -12.125 7.445312 -11.78125 6.8125 -11.09375 C 6.175781 -10.40625 5.859375 -9.40625 5.859375 -8.09375 C 5.859375 -6.789062 6.171875 -5.789062 6.796875 -5.09375 C 7.429688 -4.40625 8.21875 -4.0625 9.15625 -4.0625 Z M 9.15625 -4.0625 "/></g></g></g></svg>