<svg xmlns="http://www.w3.org/2000/svg" xmlns:xlink="http://www.w3.org/1999/xlink" width="500" zoomAndPan="magnify" viewBox="0 0 375 374.999991" height="500" preserveAspectRatio="xMidYMid meet" version="1.0"><defs><filter x="0%" y="0%" width="100%" height="100%" id="9d2fa99de0"><feColorMatrix values="0 0 0 0 1 0 0 0 0 1 0 0 0 0 1 0 0 0 1 0" color-interpolation-filters="sRGB"/></filter><g/><mask id="ffed06403b"><g filter="url(#9d2fa99de0)"><rect x="-37.5" width="450" fill="#000000" y="-37.499999" height="449.999989" fill-opacity="0.28"/></g></mask><clipPath id="c3aced023d"><path d="M 0.140625 0.140625 L 284.859375 0.140625 L 284.859375 284.859375 L 0.140625 284.859375 Z M 0.140625 0.140625 " clip-rule="nonzero"/></clipPath><clipPath id="c86b27e2b4"><path d="M 17.390625 0.140625 L 267.609375 0.140625 C 272.1875 0.140625 276.574219 1.957031 279.808594 5.191406 C 283.042969 8.425781 284.859375 12.8125 284.859375 17.390625 L 284.859375 267.609375 C 284.859375 272.1875 283.042969 276.574219 279.808594 279.808594 C 276.574219 283.042969 272.1875 284.859375 267.609375 284.859375 L 17.390625 284.859375 C 12.8125 284.859375 8.425781 283.042969 5.191406 279.808594 C 1.957031 276.574219 0.140625 272.1875 0.140625 267.609375 L 0.140625 17.390625 C 0.140625 12.8125 1.957031 8.425781 5.191406 5.191406 C 8.425781 1.957031 12.8125 0.140625 17.390625 0.140625 Z M 17.390625 0.140625 " clip-rule="nonzero"/></clipPath><clipPath id="0e94d2d544"><rect x="0" width="285" y="0" height="285"/></clipPath><clipPath id="65510ce3dd"><path d="M 104 202 L 124 202 L 124 221.164062 L 104 221.164062 Z M 104 202 " clip-rule="nonzero"/></clipPath><clipPath id="83f39f0ac4"><path d="M 194 89.171875 L 214 89.171875 L 214 109 L 194 109 Z M 194 89.171875 " clip-rule="nonzero"/></clipPath><clipPath id="9007e8efd8"><path d="M 209 204 L 226 204 L 226 221.164062 L 209 221.164062 Z M 209 204 " clip-rule="nonzero"/></clipPath></defs><g mask="url(#ffed06403b)"><g transform="matrix(1, 0, 0, 1, 45, 45)"><g clip-path="url(#0e94d2d544)"><g clip-path="url(#c3aced023d)"><g clip-path="url(#c86b27e2b4)"><path fill="#415358" d="M 0.140625 0.140625 L 284.859375 0.140625 L 284.859375 284.859375 L 0.140625 284.859375 Z M 0.140625 0.140625 " fill-opacity="1" fill-rule="nonzero"/></g></g></g></g></g><path fill="#ffffff" d="M 156.273438 173.539062 C 155.75 173.539062 155.226562 173.339844 154.828125 172.941406 L 139.851562 157.957031 C 139.054688 157.164062 139.054688 155.875 139.851562 155.082031 C 140.644531 154.285156 141.933594 154.285156 142.726562 155.082031 L 157.710938 170.066406 C 158.5 170.859375 158.5 172.148438 157.710938 172.941406 C 157.3125 173.339844 156.789062 173.539062 156.273438 173.539062 " fill-opacity="1" fill-rule="nonzero"/><path fill="#ffffff" d="M 141.289062 173.539062 C 140.773438 173.539062 140.246094 173.339844 139.851562 172.941406 C 139.054688 172.148438 139.054688 170.859375 139.851562 170.066406 L 154.828125 155.082031 C 155.628906 154.285156 156.917969 154.285156 157.710938 155.082031 C 158.5 155.875 158.5 157.164062 157.710938 157.957031 L 142.726562 172.941406 C 142.328125 173.339844 141.8125 173.539062 141.289062 173.539062 " fill-opacity="1" fill-rule="nonzero"/><g clip-path="url(#65510ce3dd)"><path fill="#ffffff" d="M 121.011719 221.164062 C 120.496094 221.164062 119.972656 220.964844 119.574219 220.566406 L 104.597656 205.589844 C 103.800781 204.796875 103.800781 203.507812 104.597656 202.714844 C 105.390625 201.917969 106.679688 201.917969 107.472656 202.714844 L 122.449219 217.691406 C 123.246094 218.484375 123.246094 219.773438 122.449219 220.566406 C 122.054688 220.964844 121.535156 221.164062 121.011719 221.164062 " fill-opacity="1" fill-rule="nonzero"/><path fill="#ffffff" d="M 106.035156 221.164062 C 105.519531 221.164062 104.996094 220.964844 104.597656 220.566406 C 103.800781 219.773438 103.800781 218.484375 104.597656 217.691406 L 119.574219 202.714844 C 120.367188 201.917969 121.65625 201.917969 122.449219 202.714844 C 123.246094 203.507812 123.246094 204.796875 122.449219 205.589844 L 107.472656 220.566406 C 107.074219 220.964844 106.558594 221.164062 106.035156 221.164062 " fill-opacity="1" fill-rule="nonzero"/></g><g clip-path="url(#83f39f0ac4)"><path fill="#ffffff" d="M 211.160156 108.800781 C 210.636719 108.800781 210.117188 108.601562 209.722656 108.203125 L 194.738281 93.226562 C 193.941406 92.433594 193.941406 91.144531 194.738281 90.351562 C 195.53125 89.554688 196.820312 89.554688 197.613281 90.351562 L 212.597656 105.328125 C 213.394531 106.121094 213.394531 107.410156 212.597656 108.203125 C 212.199219 108.601562 211.675781 108.800781 211.160156 108.800781 " fill-opacity="1" fill-rule="nonzero"/><path fill="#ffffff" d="M 196.175781 108.800781 C 195.660156 108.800781 195.132812 108.601562 194.738281 108.203125 C 193.941406 107.410156 193.941406 106.121094 194.738281 105.328125 L 209.722656 90.351562 C 210.515625 89.554688 211.804688 89.554688 212.597656 90.351562 C 213.394531 91.144531 213.394531 92.433594 212.597656 93.226562 L 197.613281 108.203125 C 197.214844 108.601562 196.699219 108.800781 196.175781 108.800781 " fill-opacity="1" fill-rule="nonzero"/></g><path fill="#ffffff" d="M 268.753906 161.054688 C 268.230469 161.054688 267.714844 160.859375 267.316406 160.460938 L 252.339844 145.476562 C 251.546875 144.679688 251.546875 143.394531 252.339844 142.597656 C 253.136719 141.804688 254.421875 141.804688 255.21875 142.597656 L 270.195312 157.585938 C 270.988281 158.378906 270.988281 159.664062 270.195312 160.460938 C 269.796875 160.859375 269.28125 161.054688 268.753906 161.054688 " fill-opacity="1" fill-rule="nonzero"/><path fill="#ffffff" d="M 253.777344 161.054688 C 253.253906 161.054688 252.738281 160.859375 252.339844 160.460938 C 251.546875 159.664062 251.546875 158.378906 252.339844 157.585938 L 267.316406 142.597656 C 268.113281 141.804688 269.398438 141.804688 270.195312 142.597656 C 270.988281 143.394531 270.988281 144.679688 270.195312 145.476562 L 255.21875 160.460938 C 254.820312 160.859375 254.296875 161.054688 253.777344 161.054688 " fill-opacity="1" fill-rule="nonzero"/><path fill="#ffffff" d="M 201.261719 126.859375 C 201.132812 126.859375 200.996094 126.84375 200.863281 126.820312 C 199.765625 126.597656 199.042969 125.53125 199.265625 124.429688 C 199.964844 120.890625 200.535156 117.230469 200.957031 113.535156 C 201.09375 112.421875 202.09375 111.621094 203.214844 111.746094 C 204.335938 111.875 205.128906 112.882812 205.003906 114.003906 C 204.566406 117.800781 203.976562 121.574219 203.253906 125.222656 C 203.0625 126.191406 202.214844 126.859375 201.261719 126.859375 " fill-opacity="1" fill-rule="nonzero"/><path fill="#ffffff" d="M 188.183594 162.257812 C 187.839844 162.257812 187.492188 162.167969 187.171875 161.984375 C 186.195312 161.421875 185.863281 160.175781 186.425781 159.203125 C 190.589844 151.976562 193.964844 144.085938 196.46875 135.742188 C 196.785156 134.660156 197.921875 134.058594 198.996094 134.375 C 200.066406 134.695312 200.679688 135.828125 200.363281 136.902344 C 197.78125 145.546875 194.277344 153.738281 189.945312 161.238281 C 189.574219 161.890625 188.890625 162.257812 188.183594 162.257812 Z M 163.742188 190.9375 C 163.144531 190.9375 162.558594 190.675781 162.152344 190.175781 C 161.445312 189.300781 161.589844 188.023438 162.464844 187.316406 C 169.050781 182 174.976562 175.8125 180.070312 168.914062 C 180.738281 168.015625 182.007812 167.816406 182.914062 168.484375 C 183.8125 169.152344 184.011719 170.433594 183.34375 171.328125 C 178.042969 178.503906 171.878906 184.949219 165.011719 190.484375 C 164.640625 190.789062 164.1875 190.9375 163.742188 190.9375 " fill-opacity="1" fill-rule="nonzero"/><path fill="#ffffff" d="M 144.171875 203 C 143.355469 203 142.582031 202.5 142.273438 201.6875 C 141.867188 200.640625 142.402344 199.464844 143.449219 199.066406 C 143.480469 199.050781 147.351562 197.550781 153 194.054688 C 153.953125 193.457031 155.199219 193.75 155.796875 194.703125 C 156.394531 195.660156 156.089844 196.914062 155.144531 197.507812 C 149.128906 201.234375 145.070312 202.800781 144.894531 202.863281 C 144.65625 202.960938 144.410156 203 144.171875 203 " fill-opacity="1" fill-rule="nonzero"/><path fill="#ffffff" d="M 187.394531 128.664062 C 186.808594 128.664062 186.226562 128.410156 185.820312 127.925781 C 185.113281 127.058594 185.234375 125.777344 186.101562 125.0625 L 201.6875 112.199219 C 202.554688 111.484375 203.835938 111.613281 204.550781 112.476562 C 205.265625 113.34375 205.144531 114.625 204.277344 115.339844 L 188.691406 128.203125 C 188.308594 128.511719 187.847656 128.664062 187.394531 128.664062 " fill-opacity="1" fill-rule="nonzero"/><path fill="#ffffff" d="M 212.160156 133.8125 C 211.414062 133.8125 210.707031 133.40625 210.339844 132.699219 L 201.171875 114.695312 C 200.664062 113.695312 201.0625 112.46875 202.0625 111.960938 C 203.0625 111.445312 204.277344 111.851562 204.796875 112.84375 L 213.972656 130.855469 C 214.480469 131.855469 214.082031 133.082031 213.082031 133.589844 C 212.78125 133.738281 212.472656 133.8125 212.160156 133.8125 " fill-opacity="1" fill-rule="nonzero"/><path fill="#ffffff" d="M 164.402344 204.699219 C 152.148438 204.699219 143.964844 203 143.734375 202.953125 C 142.640625 202.714844 141.949219 201.632812 142.1875 200.535156 C 142.425781 199.433594 143.511719 198.742188 144.601562 198.980469 C 145.199219 199.105469 202.277344 210.890625 240.699219 170.027344 L 225.8125 171.558594 C 224.683594 171.648438 223.691406 170.859375 223.578125 169.75 C 223.46875 168.628906 224.277344 167.628906 225.390625 167.515625 L 245.5 165.449219 C 246.335938 165.378906 247.113281 165.792969 247.503906 166.523438 C 247.890625 167.253906 247.796875 168.152344 247.253906 168.777344 C 221.585938 199.210938 186.425781 204.699219 164.402344 204.699219 " fill-opacity="1" fill-rule="nonzero"/><path fill="#ffffff" d="M 243.363281 189.578125 C 243.28125 189.578125 243.210938 189.570312 243.125 189.5625 C 242.011719 189.4375 241.210938 188.421875 241.34375 187.308594 L 243.679688 167.238281 C 243.816406 166.125 244.792969 165.316406 245.9375 165.449219 C 247.058594 165.578125 247.851562 166.59375 247.722656 167.707031 L 245.378906 187.777344 C 245.261719 188.816406 244.386719 189.578125 243.363281 189.578125 " fill-opacity="1" fill-rule="nonzero"/><path fill="#ffffff" d="M 207.570312 165.050781 C 205.191406 165.050781 203.261719 166.984375 203.261719 169.359375 C 203.261719 171.734375 205.191406 173.671875 207.570312 173.671875 C 209.945312 173.671875 211.875 171.734375 211.875 169.359375 C 211.875 166.984375 209.945312 165.050781 207.570312 165.050781 Z M 207.570312 177.742188 C 202.953125 177.742188 199.195312 173.984375 199.195312 169.359375 C 199.195312 164.742188 202.953125 160.984375 207.570312 160.984375 C 212.191406 160.984375 215.941406 164.742188 215.941406 169.359375 C 215.941406 173.984375 212.191406 177.742188 207.570312 177.742188 " fill-opacity="1" fill-rule="nonzero"/><g clip-path="url(#9007e8efd8)"><path fill="#ffffff" d="M 217.5 208.472656 C 215.125 208.472656 213.195312 210.414062 213.195312 212.789062 C 213.195312 215.164062 215.125 217.09375 217.5 217.09375 C 219.875 217.09375 221.808594 215.164062 221.808594 212.789062 C 221.808594 210.414062 219.875 208.472656 217.5 208.472656 Z M 217.5 221.164062 C 212.882812 221.164062 209.125 217.40625 209.125 212.789062 C 209.125 208.164062 212.882812 204.40625 217.5 204.40625 C 222.125 204.40625 225.875 208.164062 225.875 212.789062 C 225.875 217.40625 222.125 221.164062 217.5 221.164062 " fill-opacity="1" fill-rule="nonzero"/></g><path fill="#ffffff" d="M 121.011719 176.429688 C 118.636719 176.429688 116.707031 178.359375 116.707031 180.738281 C 116.707031 183.113281 118.636719 185.050781 121.011719 185.050781 C 123.386719 185.050781 125.328125 183.113281 125.328125 180.738281 C 125.328125 178.359375 123.386719 176.429688 121.011719 176.429688 Z M 121.011719 189.121094 C 116.394531 189.121094 112.636719 185.359375 112.636719 180.738281 C 112.636719 176.121094 116.394531 172.363281 121.011719 172.363281 C 125.636719 172.363281 129.394531 176.121094 129.394531 180.738281 C 129.394531 185.359375 125.636719 189.121094 121.011719 189.121094 " fill-opacity="1" fill-rule="nonzero"/><path fill="#ffffff" d="M 229.09375 141.757812 C 226.71875 141.757812 224.785156 143.6875 224.785156 146.0625 C 224.785156 148.445312 226.71875 150.378906 229.09375 150.378906 C 231.46875 150.378906 233.398438 148.445312 233.398438 146.0625 C 233.398438 143.6875 231.46875 141.757812 229.09375 141.757812 Z M 229.09375 154.445312 C 224.46875 154.445312 220.71875 150.6875 220.71875 146.0625 C 220.71875 141.445312 224.46875 137.6875 229.09375 137.6875 C 233.714844 137.6875 237.46875 141.445312 237.46875 146.0625 C 237.46875 150.6875 233.714844 154.445312 229.09375 154.445312 " fill-opacity="1" fill-rule="nonzero"/><path fill="#ffffff" d="M 166.070312 136.265625 C 163.695312 136.265625 161.765625 138.199219 161.765625 140.574219 C 161.765625 142.949219 163.695312 144.878906 166.070312 144.878906 C 168.445312 144.878906 170.382812 142.949219 170.382812 140.574219 C 170.382812 138.199219 168.445312 136.265625 166.070312 136.265625 Z M 166.070312 148.949219 C 161.453125 148.949219 157.695312 145.1875 157.695312 140.574219 C 157.695312 135.957031 161.453125 132.199219 166.070312 132.199219 C 170.695312 132.199219 174.453125 135.957031 174.453125 140.574219 C 174.453125 145.1875 170.695312 148.949219 166.070312 148.949219 " fill-opacity="1" fill-rule="nonzero"/><g fill="#ffffff" fill-opacity="1"><g transform="translate(139.203985, 262.207833)"><g><path d="M 16.4375 -20.359375 L 16.4375 -16.390625 L 11.046875 -16.390625 L 11.046875 0 L 6.09375 0 L 6.09375 -16.390625 L 0.703125 -16.390625 L 0.703125 -20.359375 Z M 16.4375 -20.359375 "/></g></g></g><g fill="#ffffff" fill-opacity="1"><g transform="translate(156.338364, 262.207833)"><g><path d="M 4.296875 -17.859375 C 3.421875 -17.859375 2.707031 -18.113281 2.15625 -18.625 C 1.601562 -19.144531 1.328125 -19.78125 1.328125 -20.53125 C 1.328125 -21.300781 1.601562 -21.941406 2.15625 -22.453125 C 2.707031 -22.972656 3.421875 -23.234375 4.296875 -23.234375 C 5.140625 -23.234375 5.835938 -22.972656 6.390625 -22.453125 C 6.941406 -21.941406 7.21875 -21.300781 7.21875 -20.53125 C 7.21875 -19.78125 6.941406 -19.144531 6.390625 -18.625 C 5.835938 -18.113281 5.140625 -17.859375 4.296875 -17.859375 Z M 6.75 -16.1875 L 6.75 0 L 1.796875 0 L 1.796875 -16.1875 Z M 6.75 -16.1875 "/></g></g></g><g fill="#ffffff" fill-opacity="1"><g transform="translate(164.89106, 262.207833)"><g><path d="M 22.453125 -16.359375 C 24.460938 -16.359375 26.0625 -15.75 27.25 -14.53125 C 28.4375 -13.3125 29.03125 -11.617188 29.03125 -9.453125 L 29.03125 0 L 24.09375 0 L 24.09375 -8.78125 C 24.09375 -9.832031 23.816406 -10.640625 23.265625 -11.203125 C 22.722656 -11.773438 21.96875 -12.0625 21 -12.0625 C 20.03125 -12.0625 19.269531 -11.773438 18.71875 -11.203125 C 18.164062 -10.640625 17.890625 -9.832031 17.890625 -8.78125 L 17.890625 0 L 12.96875 0 L 12.96875 -8.78125 C 12.96875 -9.832031 12.691406 -10.640625 12.140625 -11.203125 C 11.585938 -11.773438 10.828125 -12.0625 9.859375 -12.0625 C 8.890625 -12.0625 8.128906 -11.773438 7.578125 -11.203125 C 7.023438 -10.640625 6.75 -9.832031 6.75 -8.78125 L 6.75 0 L 1.796875 0 L 1.796875 -16.1875 L 6.75 -16.1875 L 6.75 -14.15625 C 7.257812 -14.832031 7.921875 -15.367188 8.734375 -15.765625 C 9.546875 -16.160156 10.460938 -16.359375 11.484375 -16.359375 C 12.703125 -16.359375 13.789062 -16.097656 14.75 -15.578125 C 15.707031 -15.054688 16.457031 -14.3125 17 -13.34375 C 17.550781 -14.226562 18.3125 -14.953125 19.28125 -15.515625 C 20.25 -16.078125 21.304688 -16.359375 22.453125 -16.359375 Z M 22.453125 -16.359375 "/></g></g></g><g fill="#ffffff" fill-opacity="1"><g transform="translate(195.593771, 262.207833)"><g><path d="M 17.046875 -8.359375 C 17.046875 -7.890625 17.019531 -7.40625 16.96875 -6.90625 L 5.734375 -6.90625 C 5.816406 -5.894531 6.140625 -5.125 6.703125 -4.59375 C 7.273438 -4.0625 7.976562 -3.796875 8.8125 -3.796875 C 10.050781 -3.796875 10.910156 -4.316406 11.390625 -5.359375 L 16.671875 -5.359375 C 16.398438 -4.296875 15.910156 -3.335938 15.203125 -2.484375 C 14.503906 -1.640625 13.625 -0.972656 12.5625 -0.484375 C 11.5 -0.00390625 10.304688 0.234375 8.984375 0.234375 C 7.398438 0.234375 5.988281 -0.101562 4.75 -0.78125 C 3.519531 -1.457031 2.554688 -2.421875 1.859375 -3.671875 C 1.160156 -4.929688 0.8125 -6.40625 0.8125 -8.09375 C 0.8125 -9.769531 1.15625 -11.238281 1.84375 -12.5 C 2.53125 -13.757812 3.488281 -14.722656 4.71875 -15.390625 C 5.957031 -16.066406 7.378906 -16.40625 8.984375 -16.40625 C 10.554688 -16.40625 11.953125 -16.078125 13.171875 -15.421875 C 14.390625 -14.765625 15.335938 -13.828125 16.015625 -12.609375 C 16.703125 -11.390625 17.046875 -9.972656 17.046875 -8.359375 Z M 11.984375 -9.65625 C 11.984375 -10.507812 11.691406 -11.1875 11.109375 -11.6875 C 10.523438 -12.1875 9.800781 -12.4375 8.9375 -12.4375 C 8.101562 -12.4375 7.398438 -12.191406 6.828125 -11.703125 C 6.253906 -11.222656 5.898438 -10.539062 5.765625 -9.65625 Z M 11.984375 -9.65625 "/></g></g></g><g fill="#ffffff" fill-opacity="1"><g transform="translate(213.452951, 262.207833)"><g><path d="M 8.375 0.234375 C 6.96875 0.234375 5.710938 -0.00390625 4.609375 -0.484375 C 3.503906 -0.972656 2.632812 -1.632812 2 -2.46875 C 1.363281 -3.3125 1.003906 -4.257812 0.921875 -5.3125 L 5.828125 -5.3125 C 5.890625 -4.75 6.148438 -4.289062 6.609375 -3.9375 C 7.078125 -3.59375 7.648438 -3.421875 8.328125 -3.421875 C 8.941406 -3.421875 9.414062 -3.539062 9.75 -3.78125 C 10.09375 -4.019531 10.265625 -4.335938 10.265625 -4.734375 C 10.265625 -5.191406 10.019531 -5.53125 9.53125 -5.75 C 9.050781 -5.976562 8.269531 -6.226562 7.1875 -6.5 C 6.03125 -6.769531 5.0625 -7.050781 4.28125 -7.34375 C 3.507812 -7.644531 2.84375 -8.117188 2.28125 -8.765625 C 1.726562 -9.421875 1.453125 -10.296875 1.453125 -11.390625 C 1.453125 -12.316406 1.707031 -13.160156 2.21875 -13.921875 C 2.726562 -14.691406 3.476562 -15.296875 4.46875 -15.734375 C 5.46875 -16.179688 6.65625 -16.40625 8.03125 -16.40625 C 10.0625 -16.40625 11.660156 -15.898438 12.828125 -14.890625 C 14.003906 -13.890625 14.675781 -12.5625 14.84375 -10.90625 L 10.265625 -10.90625 C 10.191406 -11.46875 9.945312 -11.910156 9.53125 -12.234375 C 9.113281 -12.566406 8.566406 -12.734375 7.890625 -12.734375 C 7.304688 -12.734375 6.859375 -12.617188 6.546875 -12.390625 C 6.242188 -12.171875 6.09375 -11.867188 6.09375 -11.484375 C 6.09375 -11.015625 6.335938 -10.664062 6.828125 -10.4375 C 7.316406 -10.207031 8.085938 -9.976562 9.140625 -9.75 C 10.335938 -9.4375 11.3125 -9.128906 12.0625 -8.828125 C 12.8125 -8.523438 13.472656 -8.039062 14.046875 -7.375 C 14.617188 -6.707031 14.914062 -5.816406 14.9375 -4.703125 C 14.9375 -3.753906 14.671875 -2.90625 14.140625 -2.15625 C 13.609375 -1.414062 12.84375 -0.832031 11.84375 -0.40625 C 10.851562 0.0195312 9.695312 0.234375 8.375 0.234375 Z M 8.375 0.234375 "/></g></g></g><g fill="#ffffff" fill-opacity="1"><g transform="translate(229.637577, 262.207833)"><g/></g></g><g fill="#ffffff" fill-opacity="1"><g transform="translate(98.349384, 293.152598)"><g><path d="M 6.75 -13.890625 C 7.238281 -14.640625 7.90625 -15.242188 8.75 -15.703125 C 9.601562 -16.171875 10.601562 -16.40625 11.75 -16.40625 C 13.082031 -16.40625 14.289062 -16.066406 15.375 -15.390625 C 16.457031 -14.722656 17.3125 -13.757812 17.9375 -12.5 C 18.5625 -11.238281 18.875 -9.78125 18.875 -8.125 C 18.875 -6.457031 18.5625 -4.988281 17.9375 -3.71875 C 17.3125 -2.457031 16.457031 -1.484375 15.375 -0.796875 C 14.289062 -0.109375 13.082031 0.234375 11.75 0.234375 C 10.625 0.234375 9.628906 0.00390625 8.765625 -0.453125 C 7.910156 -0.921875 7.238281 -1.523438 6.75 -2.265625 L 6.75 7.71875 L 1.796875 7.71875 L 1.796875 -16.1875 L 6.75 -16.1875 Z M 13.828125 -8.125 C 13.828125 -9.351562 13.484375 -10.320312 12.796875 -11.03125 C 12.117188 -11.738281 11.273438 -12.09375 10.265625 -12.09375 C 9.273438 -12.09375 8.4375 -11.734375 7.75 -11.015625 C 7.070312 -10.304688 6.734375 -9.332031 6.734375 -8.09375 C 6.734375 -6.851562 7.070312 -5.875 7.75 -5.15625 C 8.4375 -4.445312 9.273438 -4.09375 10.265625 -4.09375 C 11.253906 -4.09375 12.09375 -4.453125 12.78125 -5.171875 C 13.476562 -5.898438 13.828125 -6.882812 13.828125 -8.125 Z M 13.828125 -8.125 "/></g></g></g><g fill="#ffffff" fill-opacity="1"><g transform="translate(118.035075, 293.152598)"><g><path d="M 6.75 -13.484375 C 7.332031 -14.367188 8.054688 -15.066406 8.921875 -15.578125 C 9.796875 -16.097656 10.765625 -16.359375 11.828125 -16.359375 L 11.828125 -11.109375 L 10.46875 -11.109375 C 9.226562 -11.109375 8.296875 -10.84375 7.671875 -10.3125 C 7.054688 -9.78125 6.75 -8.847656 6.75 -7.515625 L 6.75 0 L 1.796875 0 L 1.796875 -16.1875 L 6.75 -16.1875 Z M 6.75 -13.484375 "/></g></g></g><g fill="#ffffff" fill-opacity="1"><g transform="translate(130.443731, 293.152598)"><g><path d="M 17.046875 -8.359375 C 17.046875 -7.890625 17.019531 -7.40625 16.96875 -6.90625 L 5.734375 -6.90625 C 5.816406 -5.894531 6.140625 -5.125 6.703125 -4.59375 C 7.273438 -4.0625 7.976562 -3.796875 8.8125 -3.796875 C 10.050781 -3.796875 10.910156 -4.316406 11.390625 -5.359375 L 16.671875 -5.359375 C 16.398438 -4.296875 15.910156 -3.335938 15.203125 -2.484375 C 14.503906 -1.640625 13.625 -0.972656 12.5625 -0.484375 C 11.5 -0.00390625 10.304688 0.234375 8.984375 0.234375 C 7.398438 0.234375 5.988281 -0.101562 4.75 -0.78125 C 3.519531 -1.457031 2.554688 -2.421875 1.859375 -3.671875 C 1.160156 -4.929688 0.8125 -6.40625 0.8125 -8.09375 C 0.8125 -9.769531 1.15625 -11.238281 1.84375 -12.5 C 2.53125 -13.757812 3.488281 -14.722656 4.71875 -15.390625 C 5.957031 -16.066406 7.378906 -16.40625 8.984375 -16.40625 C 10.554688 -16.40625 11.953125 -16.078125 13.171875 -15.421875 C 14.390625 -14.765625 15.335938 -13.828125 16.015625 -12.609375 C 16.703125 -11.390625 17.046875 -9.972656 17.046875 -8.359375 Z M 11.984375 -9.65625 C 11.984375 -10.507812 11.691406 -11.1875 11.109375 -11.6875 C 10.523438 -12.1875 9.800781 -12.4375 8.9375 -12.4375 C 8.101562 -12.4375 7.398438 -12.191406 6.828125 -11.703125 C 6.253906 -11.222656 5.898438 -10.539062 5.765625 -9.65625 Z M 12.328125 -20.328125 L 5.34375 -17.390625 L 5.34375 -20.8125 L 12.328125 -24.171875 Z M 12.328125 -20.328125 "/></g></g></g><g fill="#ffffff" fill-opacity="1"><g transform="translate(148.30291, 293.152598)"><g><path d="M 14.265625 -12.234375 L 14.265625 -8.125 L 1.515625 -8.125 L 1.515625 -12.234375 Z M 14.265625 -12.234375 "/></g></g></g><g fill="#ffffff" fill-opacity="1"><g transform="translate(165.118377, 293.152598)"><g><path d="M 0.8125 -8.125 C 0.8125 -9.78125 1.125 -11.238281 1.75 -12.5 C 2.382812 -13.757812 3.238281 -14.722656 4.3125 -15.390625 C 5.394531 -16.066406 6.609375 -16.40625 7.953125 -16.40625 C 9.015625 -16.40625 9.984375 -16.179688 10.859375 -15.734375 C 11.742188 -15.296875 12.4375 -14.703125 12.9375 -13.953125 L 12.9375 -21.453125 L 17.890625 -21.453125 L 17.890625 0 L 12.9375 0 L 12.9375 -2.3125 C 12.46875 -1.539062 11.800781 -0.921875 10.9375 -0.453125 C 10.082031 0.00390625 9.085938 0.234375 7.953125 0.234375 C 6.609375 0.234375 5.394531 -0.109375 4.3125 -0.796875 C 3.238281 -1.484375 2.382812 -2.457031 1.75 -3.71875 C 1.125 -4.988281 0.8125 -6.457031 0.8125 -8.125 Z M 12.9375 -8.09375 C 12.9375 -9.332031 12.59375 -10.304688 11.90625 -11.015625 C 11.21875 -11.734375 10.378906 -12.09375 9.390625 -12.09375 C 8.410156 -12.09375 7.578125 -11.738281 6.890625 -11.03125 C 6.203125 -10.320312 5.859375 -9.351562 5.859375 -8.125 C 5.859375 -6.882812 6.203125 -5.898438 6.890625 -5.171875 C 7.578125 -4.453125 8.410156 -4.09375 9.390625 -4.09375 C 10.378906 -4.09375 11.21875 -4.445312 11.90625 -5.15625 C 12.59375 -5.875 12.9375 -6.851562 12.9375 -8.09375 Z M 12.9375 -8.09375 "/></g></g></g><g fill="#ffffff" fill-opacity="1"><g transform="translate(184.804068, 293.152598)"><g><path d="M 17.046875 -8.359375 C 17.046875 -7.890625 17.019531 -7.40625 16.96875 -6.90625 L 5.734375 -6.90625 C 5.816406 -5.894531 6.140625 -5.125 6.703125 -4.59375 C 7.273438 -4.0625 7.976562 -3.796875 8.8125 -3.796875 C 10.050781 -3.796875 10.910156 -4.316406 11.390625 -5.359375 L 16.671875 -5.359375 C 16.398438 -4.296875 15.910156 -3.335938 15.203125 -2.484375 C 14.503906 -1.640625 13.625 -0.972656 12.5625 -0.484375 C 11.5 -0.00390625 10.304688 0.234375 8.984375 0.234375 C 7.398438 0.234375 5.988281 -0.101562 4.75 -0.78125 C 3.519531 -1.457031 2.554688 -2.421875 1.859375 -3.671875 C 1.160156 -4.929688 0.8125 -6.40625 0.8125 -8.09375 C 0.8125 -9.769531 1.15625 -11.238281 1.84375 -12.5 C 2.53125 -13.757812 3.488281 -14.722656 4.71875 -15.390625 C 5.957031 -16.066406 7.378906 -16.40625 8.984375 -16.40625 C 10.554688 -16.40625 11.953125 -16.078125 13.171875 -15.421875 C 14.390625 -14.765625 15.335938 -13.828125 16.015625 -12.609375 C 16.703125 -11.390625 17.046875 -9.972656 17.046875 -8.359375 Z M 11.984375 -9.65625 C 11.984375 -10.507812 11.691406 -11.1875 11.109375 -11.6875 C 10.523438 -12.1875 9.800781 -12.4375 8.9375 -12.4375 C 8.101562 -12.4375 7.398438 -12.191406 6.828125 -11.703125 C 6.253906 -11.222656 5.898438 -10.539062 5.765625 -9.65625 Z M 11.984375 -9.65625 "/></g></g></g><g fill="#ffffff" fill-opacity="1"><g transform="translate(202.663247, 293.152598)"><g><path d="M 9.921875 -12.0625 L 7.25 -12.0625 L 7.25 0 L 2.296875 0 L 2.296875 -12.0625 L 0.5 -12.0625 L 0.5 -16.1875 L 2.296875 -16.1875 L 2.296875 -16.640625 C 2.296875 -18.640625 2.863281 -20.15625 4 -21.1875 C 5.144531 -22.21875 6.816406 -22.734375 9.015625 -22.734375 C 9.378906 -22.734375 9.648438 -22.722656 9.828125 -22.703125 L 9.828125 -18.5 C 8.878906 -18.5625 8.210938 -18.425781 7.828125 -18.09375 C 7.441406 -17.769531 7.25 -17.179688 7.25 -16.328125 L 7.25 -16.1875 L 9.921875 -16.1875 Z M 9.921875 -12.0625 "/></g></g></g><g fill="#ffffff" fill-opacity="1"><g transform="translate(213.10043, 293.152598)"><g><path d="M 4.296875 -17.859375 C 3.421875 -17.859375 2.707031 -18.113281 2.15625 -18.625 C 1.601562 -19.144531 1.328125 -19.78125 1.328125 -20.53125 C 1.328125 -21.300781 1.601562 -21.941406 2.15625 -22.453125 C 2.707031 -22.972656 3.421875 -23.234375 4.296875 -23.234375 C 5.140625 -23.234375 5.835938 -22.972656 6.390625 -22.453125 C 6.941406 -21.941406 7.21875 -21.300781 7.21875 -20.53125 C 7.21875 -19.78125 6.941406 -19.144531 6.390625 -18.625 C 5.835938 -18.113281 5.140625 -17.859375 4.296875 -17.859375 Z M 6.75 -16.1875 L 6.75 0 L 1.796875 0 L 1.796875 -16.1875 Z M 6.75 -16.1875 "/></g></g></g><g fill="#ffffff" fill-opacity="1"><g transform="translate(221.653126, 293.152598)"><g><path d="M 11.65625 -16.359375 C 13.550781 -16.359375 15.0625 -15.742188 16.1875 -14.515625 C 17.320312 -13.285156 17.890625 -11.597656 17.890625 -9.453125 L 17.890625 0 L 12.96875 0 L 12.96875 -8.78125 C 12.96875 -9.863281 12.6875 -10.703125 12.125 -11.296875 C 11.5625 -11.898438 10.804688 -12.203125 9.859375 -12.203125 C 8.910156 -12.203125 8.15625 -11.898438 7.59375 -11.296875 C 7.03125 -10.703125 6.75 -9.863281 6.75 -8.78125 L 6.75 0 L 1.796875 0 L 1.796875 -16.1875 L 6.75 -16.1875 L 6.75 -14.03125 C 7.257812 -14.75 7.9375 -15.316406 8.78125 -15.734375 C 9.632812 -16.148438 10.59375 -16.359375 11.65625 -16.359375 Z M 11.65625 -16.359375 "/></g></g></g><g fill="#ffffff" fill-opacity="1"><g transform="translate(241.193854, 293.152598)"><g><path d="M 4.296875 -17.859375 C 3.421875 -17.859375 2.707031 -18.113281 2.15625 -18.625 C 1.601562 -19.144531 1.328125 -19.78125 1.328125 -20.53125 C 1.328125 -21.300781 1.601562 -21.941406 2.15625 -22.453125 C 2.707031 -22.972656 3.421875 -23.234375 4.296875 -23.234375 C 5.140625 -23.234375 5.835938 -22.972656 6.390625 -22.453125 C 6.941406 -21.941406 7.21875 -21.300781 7.21875 -20.53125 C 7.21875 -19.78125 6.941406 -19.144531 6.390625 -18.625 C 5.835938 -18.113281 5.140625 -17.859375 4.296875 -17.859375 Z M 6.75 -16.1875 L 6.75 0 L 1.796875 0 L 1.796875 -16.1875 Z M 6.75 -16.1875 "/></g></g></g><g fill="#ffffff" fill-opacity="1"><g transform="translate(249.74655, 293.152598)"><g><path d="M 0.8125 -8.125 C 0.8125 -9.78125 1.125 -11.238281 1.75 -12.5 C 2.382812 -13.757812 3.238281 -14.722656 4.3125 -15.390625 C 5.394531 -16.066406 6.609375 -16.40625 7.953125 -16.40625 C 9.015625 -16.40625 9.984375 -16.179688 10.859375 -15.734375 C 11.742188 -15.296875 12.4375 -14.703125 12.9375 -13.953125 L 12.9375 -21.453125 L 17.890625 -21.453125 L 17.890625 0 L 12.9375 0 L 12.9375 -2.3125 C 12.46875 -1.539062 11.800781 -0.921875 10.9375 -0.453125 C 10.082031 0.00390625 9.085938 0.234375 7.953125 0.234375 C 6.609375 0.234375 5.394531 -0.109375 4.3125 -0.796875 C 3.238281 -1.484375 2.382812 -2.457031 1.75 -3.71875 C 1.125 -4.988281 0.8125 -6.457031 0.8125 -8.125 Z M 12.9375 -8.09375 C 12.9375 -9.332031 12.59375 -10.304688 11.90625 -11.015625 C 11.21875 -11.734375 10.378906 -12.09375 9.390625 -12.09375 C 8.410156 -12.09375 7.578125 -11.738281 6.890625 -11.03125 C 6.203125 -10.320312 5.859375 -9.351562 5.859375 -8.125 C 5.859375 -6.882812 6.203125 -5.898438 6.890625 -5.171875 C 7.578125 -4.453125 8.410156 -4.09375 9.390625 -4.09375 C 10.378906 -4.09375 11.21875 -4.445312 11.90625 -5.15625 C 12.59375 -5.875 12.9375 -6.851562 12.9375 -8.09375 Z M 12.9375 -8.09375 "/></g></g></g><g fill="#ffffff" fill-opacity="1"><g transform="translate(269.43224, 293.152598)"><g><path d="M 9.15625 0.234375 C 7.570312 0.234375 6.144531 -0.101562 4.875 -0.78125 C 3.613281 -1.457031 2.617188 -2.421875 1.890625 -3.671875 C 1.171875 -4.929688 0.8125 -6.40625 0.8125 -8.09375 C 0.8125 -9.75 1.175781 -11.210938 1.90625 -12.484375 C 2.644531 -13.753906 3.648438 -14.722656 4.921875 -15.390625 C 6.203125 -16.066406 7.632812 -16.40625 9.21875 -16.40625 C 10.800781 -16.40625 12.226562 -16.066406 13.5 -15.390625 C 14.78125 -14.722656 15.785156 -13.753906 16.515625 -12.484375 C 17.253906 -11.210938 17.625 -9.75 17.625 -8.09375 C 17.625 -6.425781 17.253906 -4.957031 16.515625 -3.6875 C 15.773438 -2.425781 14.757812 -1.457031 13.46875 -0.78125 C 12.1875 -0.101562 10.75 0.234375 9.15625 0.234375 Z M 9.15625 -4.0625 C 10.101562 -4.0625 10.910156 -4.40625 11.578125 -5.09375 C 12.253906 -5.789062 12.59375 -6.789062 12.59375 -8.09375 C 12.59375 -9.382812 12.265625 -10.378906 11.609375 -11.078125 C 10.960938 -11.773438 10.164062 -12.125 9.21875 -12.125 C 8.25 -12.125 7.445312 -11.78125 6.8125 -11.09375 C 6.175781 -10.40625 5.859375 -9.40625 5.859375 -8.09375 C 5.859375 -6.789062 6.171875 -5.789062 6.796875 -5.09375 C 7.429688 -4.40625 8.21875 -4.0625 9.15625 -4.0625 Z M 9.15625 -4.0625 "/></g></g></g><g fill="#ffffff" fill-opacity="1"><g transform="translate(287.900256, 293.152598)"><g><path d="M 8.375 0.234375 C 6.96875 0.234375 5.710938 -0.00390625 4.609375 -0.484375 C 3.503906 -0.972656 2.632812 -1.632812 2 -2.46875 C 1.363281 -3.3125 1.003906 -4.257812 0.921875 -5.3125 L 5.828125 -5.3125 C 5.890625 -4.75 6.148438 -4.289062 6.609375 -3.9375 C 7.078125 -3.59375 7.648438 -3.421875 8.328125 -3.421875 C 8.941406 -3.421875 9.414062 -3.539062 9.75 -3.78125 C 10.09375 -4.019531 10.265625 -4.335938 10.265625 -4.734375 C 10.265625 -5.191406 10.019531 -5.53125 9.53125 -5.75 C 9.050781 -5.976562 8.269531 -6.226562 7.1875 -6.5 C 6.03125 -6.769531 5.0625 -7.050781 4.28125 -7.34375 C 3.507812 -7.644531 2.84375 -8.117188 2.28125 -8.765625 C 1.726562 -9.421875 1.453125 -10.296875 1.453125 -11.390625 C 1.453125 -12.316406 1.707031 -13.160156 2.21875 -13.921875 C 2.726562 -14.691406 3.476562 -15.296875 4.46875 -15.734375 C 5.46875 -16.179688 6.65625 -16.40625 8.03125 -16.40625 C 10.0625 -16.40625 11.660156 -15.898438 12.828125 -14.890625 C 14.003906 -13.890625 14.675781 -12.5625 14.84375 -10.90625 L 10.265625 -10.90625 C 10.191406 -11.46875 9.945312 -11.910156 9.53125 -12.234375 C 9.113281 -12.566406 8.566406 -12.734375 7.890625 -12.734375 C 7.304688 -12.734375 6.859375 -12.617188 6.546875 -12.390625 C 6.242188 -12.171875 6.09375 -11.867188 6.09375 -11.484375 C 6.09375 -11.015625 6.335938 -10.664062 6.828125 -10.4375 C 7.316406 -10.207031 8.085938 -9.976562 9.140625 -9.75 C 10.335938 -9.4375 11.3125 -9.128906 12.0625 -8.828125 C 12.8125 -8.523438 13.472656 -8.039062 14.046875 -7.375 C 14.617188 -6.707031 14.914062 -5.816406 14.9375 -4.703125 C 14.9375 -3.753906 14.671875 -2.90625 14.140625 -2.15625 C 13.609375 -1.414062 12.84375 -0.832031 11.84375 -0.40625 C 10.851562 0.0195312 9.695312 0.234375 8.375 0.234375 Z M 8.375 0.234375 "/></g></g></g></svg>