<svg xmlns="http://www.w3.org/2000/svg" width="26" height="26" viewBox="0 0 26 26" fill="none">
<path d="M4 23V22.7659C4 21.5993 4.22259 20.4435 4.65583 19.3604V19.3604C4.87911 18.8022 5.27911 18.3325 5.79463 18.0232L6.52485 17.5851C7.16294 17.2022 7.89308 17 8.6372 17H17.0452C17.67 17 18.283 17.1698 18.8188 17.4913L19.248 17.7488C20.0454 18.2272 20.604 19.0199 20.7863 19.9317V19.9317C20.9284 20.6422 21 21.3649 21 22.0894V23" stroke="white"/>
<path d="M9.88666 6.43465L9.13727 6.96571L9.11352 6.98562C8.70882 7.32492 8.37814 7.74374 8.14196 8.2161C8.0476 8.40482 7.97418 8.6033 7.92301 8.80799L7.78251 9.36998C7.598 10.108 7.62777 10.8833 7.86834 11.605L8 12L8.66718 13.0008C8.88688 13.3304 9.16967 13.6131 9.49923 13.8328L10.5 14.5L11.4093 14.7273C12.1275 14.9069 12.8765 14.9247 13.6024 14.7795L14.7373 14.5526C14.9117 14.5177 15.0806 14.4597 15.2396 14.3802L15.6025 14.1988C15.8658 14.0671 16.1061 13.8939 16.3142 13.6858L16.3796 13.6204C16.7876 13.2124 17.095 12.715 17.2775 12.1676C17.4249 11.7254 17.5 11.2624 17.5 10.7963V9.47214C17.5 9.16165 17.4277 8.85542 17.2889 8.57771L16.8563 7.7126C16.6228 7.24563 16.2715 6.84767 15.8371 6.55807L15.6584 6.43893C15.2237 6.14914 14.7364 5.94731 14.2241 5.84484L13.6025 5.72052C12.8766 5.57532 12.1274 5.59314 11.4092 5.7727L11.2293 5.81768C10.7473 5.93817 10.292 6.1474 9.88666 6.43465Z" stroke="white"/>
</svg>